<svg xmlns="http://www.w3.org/2000/svg" width="641.648" height="507.668" viewBox="0 0 641.648 507.668">
  <g id="code" transform="translate(-184.668 -165.399) rotate(1)">
    <rect id="Rectangle_1" data-name="Rectangle 1" width="633.076" height="496.695" transform="translate(196.194 162)" fill="#3f3d56"/>
    <path id="Path_2" data-name="Path 2" d="M570.847,264.417H414.668a1.9,1.9,0,1,1,0-3.791H570.847a1.9,1.9,0,0,1,0,3.791Z" transform="translate(-65.318 -34.539)" fill="#f2f2f2"/>
    <path id="Path_3" data-name="Path 3" d="M757.12,289.183H511.479a1.9,1.9,0,0,1,0-3.791H757.12a1.9,1.9,0,0,1,0,3.791Z" transform="translate(-80.628 -38.455)" fill="#f2f2f2"/>
    <path id="Path_4" data-name="Path 4" d="M571.747,313.948H415.568a1.9,1.9,0,0,1,0-3.791H571.747a1.9,1.9,0,0,1,0,3.791Z" transform="translate(-65.46 -42.372)" fill="#f2f2f2"/>
    <path id="Path_5" data-name="Path 5" d="M773.926,314.4H617.746a1.9,1.9,0,1,1,0-3.791H773.926a1.9,1.9,0,0,1,0,3.791Z" transform="translate(-97.433 -42.443)" fill="#f2f2f2"/>
    <path id="Path_6" data-name="Path 6" d="M572.2,338.714H416.018a1.9,1.9,0,1,1,0-3.791H572.2a1.9,1.9,0,1,1,0,3.791Z" transform="translate(-65.531 -46.288)" fill="#f2f2f2"/>
    <path id="Path_7" data-name="Path 7" d="M572.648,363.48H416.469a1.9,1.9,0,0,1,0-3.791H572.648a1.9,1.9,0,0,1,0,3.791Z" transform="translate(-65.603 -50.205)" fill="#f2f2f2"/>
    <path id="Path_8" data-name="Path 8" d="M677.787,264.867H633.056a1.9,1.9,0,1,1,0-3.791h44.731a1.9,1.9,0,0,1,0,3.791Z" transform="translate(-99.855 -34.61)" fill="#f2f2f2"/>
    <path id="Path_9" data-name="Path 9" d="M677.787,338.714H633.056a1.9,1.9,0,1,1,0-3.791h44.731a1.9,1.9,0,0,1,0,3.791Z" transform="translate(-99.855 -46.288)" fill="#f2f2f2"/>
    <path id="Path_10" data-name="Path 10" d="M677.787,363.03H633.056a1.9,1.9,0,1,1,0-3.791h44.731a1.9,1.9,0,0,1,0,3.791Z" transform="translate(-99.855 -50.134)" fill="#f2f2f2"/>
    <path id="Path_11" data-name="Path 11" d="M766.944,363.03H722.213a1.9,1.9,0,1,1,0-3.791h44.731a1.9,1.9,0,1,1,0,3.791Z" transform="translate(-113.954 -50.134)" fill="#f2f2f2"/>
    <path id="Path_12" data-name="Path 12" d="M458.948,289.183H414.217a1.9,1.9,0,0,1,0-3.791h44.731a1.9,1.9,0,0,1,0,3.791Z" transform="translate(-65.247 -38.455)" fill="#f2f2f2"/>
    <path id="Path_13" data-name="Path 13" d="M571.072,629.148H414.893a1.9,1.9,0,1,1,0-3.791H571.072a1.9,1.9,0,0,1,0,3.791Z" transform="translate(-65.353 -92.219)" fill="#f2f2f2"/>
    <path id="Path_14" data-name="Path 14" d="M570.171,678.68H413.992a1.9,1.9,0,1,1,0-3.791H570.171a1.9,1.9,0,0,1,0,3.791Z" transform="translate(-65.211 -100.052)" fill="#f2f2f2"/>
    <path id="Path_15" data-name="Path 15" d="M570.622,703.446H414.442a1.9,1.9,0,1,1,0-3.791H570.622a1.9,1.9,0,1,1,0,3.791Z" transform="translate(-65.282 -103.969)" fill="#f2f2f2"/>
    <path id="Path_16" data-name="Path 16" d="M670.808,679.13H626.077a1.9,1.9,0,0,1,0-3.791h44.731a1.9,1.9,0,0,1,0,3.791Z" transform="translate(-98.751 -100.123)" fill="#f2f2f2"/>
    <path id="Path_17" data-name="Path 17" d="M670.808,703.446H626.077a1.9,1.9,0,0,1,0-3.791h44.731a1.9,1.9,0,1,1,0,3.791Z" transform="translate(-98.751 -103.969)" fill="#f2f2f2"/>
    <path id="Path_18" data-name="Path 18" d="M759.964,679.13H715.233a1.9,1.9,0,0,1,0-3.791h44.731a1.9,1.9,0,0,1,0,3.791Z" transform="translate(-112.85 -100.123)" fill="#f2f2f2"/>
    <path id="Path_19" data-name="Path 19" d="M757.345,653.914H511.7a1.9,1.9,0,0,1,0-3.791H757.345a1.9,1.9,0,0,1,0,3.791Z" transform="translate(-80.663 -96.135)" fill="#f2f2f2"/>
    <path id="Path_20" data-name="Path 20" d="M459.173,653.914H414.442a1.9,1.9,0,1,1,0-3.791h44.731a1.9,1.9,0,0,1,0,3.791Z" transform="translate(-65.282 -96.135)" fill="#f2f2f2"/>
    <path id="Path_21" data-name="Path 21" d="M757.345,728.662H511.7a1.9,1.9,0,1,1,0-3.791H757.345a1.9,1.9,0,1,1,0,3.791Z" transform="translate(-80.663 -107.956)" fill="#f2f2f2"/>
    <path id="Path_22" data-name="Path 22" d="M459.173,728.662H414.442a1.9,1.9,0,1,1,0-3.791h44.731a1.9,1.9,0,1,1,0,3.791Z" transform="translate(-65.282 -107.956)" fill="#f2f2f2"/>
    <path id="Path_23" data-name="Path 23" d="M507.666,401.13l-60.652,59.894,60.652,59.894,13.646-13.646L475.445,461.4l46.246-46.247Z" transform="translate(-39.666 -37.817)" fill="#6c63ff"/>
    <path id="Path_24" data-name="Path 24" d="M622.692,401.13l60.652,59.894-60.652,59.894-13.647-13.646L654.914,461.4l-46.247-46.247Z" transform="translate(-65.23 -37.817)" fill="#6c63ff"/>
    <circle id="Ellipse_5" data-name="Ellipse 5" cx="7.577" cy="7.577" r="7.577" transform="translate(205.454 167.051)" fill="#6c63ff"/>
    <circle id="Ellipse_6" data-name="Ellipse 6" cx="7.577" cy="7.577" r="7.577" transform="translate(225.659 167.051)" fill="#6c63ff"/>
    <circle id="Ellipse_7" data-name="Ellipse 7" cx="7.577" cy="7.577" r="7.577" transform="translate(245.863 167.051)" fill="#6c63ff"/>
    <rect id="Rectangle_2" data-name="Rectangle 2" width="633.076" height="2.526" transform="translate(196.194 187.256)" opacity="0.1"/>
  </g>
</svg>
