<svg xmlns="http://www.w3.org/2000/svg" width="983.822" height="689.064" viewBox="0 0 983.822 689.064">
  <g id="career" transform="translate(-7.318)">
    <path id="Path_48" data-name="Path 48" d="M394.011,64.911l-157.853,85.5a40.156,40.156,0,1,1-70.587,38.234L111.748,217.8,251.167,475.2,533.43,322.305Z" transform="translate(-104.43 -64.911)" fill="#f2f2f2"/>
    <circle id="Ellipse_14" data-name="Ellipse 14" cx="32.587" cy="32.587" r="32.587" transform="translate(62.016 73.081)" fill="#6c63ff"/>
    <path id="Path_49" data-name="Path 49" d="M790.385,753.975,961.057,698.3a40.156,40.156,0,1,1,76.319-24.894l58.194-18.982-90.777-278.3L699.608,475.679Z" transform="translate(-104.43 -64.911)" fill="#f2f2f2"/>
    <circle id="Ellipse_15" data-name="Ellipse 15" cx="32.587" cy="32.587" r="32.587" transform="translate(864.188 587.657)" fill="#6c63ff"/>
    <rect id="Rectangle_9" data-name="Rectangle 9" width="788" height="358" transform="translate(115.5 152.678)" fill="#3f3d56"/>
    <rect id="Rectangle_10" data-name="Rectangle 10" width="762" height="325" transform="translate(128.5 165.678)" fill="#fff"/>
    <rect id="Rectangle_11" data-name="Rectangle 11" width="74" height="25" transform="translate(739 475.178)" fill="#3f3d56"/>
    <rect id="Rectangle_12" data-name="Rectangle 12" width="54" height="7" transform="translate(681 494.178)" fill="#6c63ff"/>
    <path id="Path_50" data-name="Path 50" d="M190.5,288.678h291l45.116,21.979L598.5,345.678l47-88h133" fill="none" stroke="#3f3d56" stroke-miterlimit="10" stroke-width="2"/>
    <path id="Path_51" data-name="Path 51" d="M304.925,288.678l21.575,51h53" fill="none" stroke="#3f3d56" stroke-miterlimit="10" stroke-width="2"/>
    <path id="Path_52" data-name="Path 52" d="M385.807,288.678l73.693-40h52" fill="none" stroke="#3f3d56" stroke-miterlimit="10" stroke-width="2"/>
    <circle id="Ellipse_16" data-name="Ellipse 16" cx="9" cy="9" r="9" transform="translate(295.5 279.678)" fill="#6c63ff"/>
    <circle id="Ellipse_17" data-name="Ellipse 17" cx="9" cy="9" r="9" transform="translate(379.5 279.678)" fill="#6c63ff"/>
    <path id="Path_53" data-name="Path 53" d="M526.5,310.678l6,89h52" fill="none" stroke="#3f3d56" stroke-miterlimit="10" stroke-width="2"/>
    <path id="Path_54" data-name="Path 54" d="M626.65,292.971,569.5,248.678h54" fill="none" stroke="#3f3d56" stroke-miterlimit="10" stroke-width="2"/>
    <path id="Path_55" data-name="Path 55" d="M721.051,257.678l55.449,44h52" fill="none" stroke="#3f3d56" stroke-miterlimit="10" stroke-width="2"/>
    <circle id="Ellipse_18" data-name="Ellipse 18" cx="9" cy="9" r="9" transform="translate(517.5 301.678)" fill="#6c63ff"/>
    <circle id="Ellipse_19" data-name="Ellipse 19" cx="9" cy="9" r="9" transform="translate(711.5 248.678)" fill="#6c63ff"/>
    <circle id="Ellipse_20" data-name="Ellipse 20" cx="9" cy="9" r="9" transform="translate(617.5 283.678)" fill="#6c63ff"/>
    <line id="Line_1" data-name="Line 1" x2="52" transform="translate(327.5 347.678)" fill="none" stroke="#3f3d56" stroke-miterlimit="10" stroke-width="2"/>
    <path id="Path_56" data-name="Path 56" d="M615.93,322.589Z" transform="translate(-104.43 -64.911)" fill="none" stroke="#3f3d56" stroke-miterlimit="10" stroke-width="2"/>
    <path id="Path_57" data-name="Path 57" d="M727.93,321.589Z" transform="translate(-104.43 -64.911)" fill="none" stroke="#3f3d56" stroke-miterlimit="10" stroke-width="2"/>
    <path id="Path_58" data-name="Path 58" d="M727.93,329.589Z" transform="translate(-104.43 -64.911)" fill="none" stroke="#3f3d56" stroke-miterlimit="10" stroke-width="2"/>
    <path id="Path_59" data-name="Path 59" d="M932.93,374.589Z" transform="translate(-104.43 -64.911)" fill="none" stroke="#3f3d56" stroke-miterlimit="10" stroke-width="2"/>
    <path id="Path_60" data-name="Path 60" d="M913.93,382.589Z" transform="translate(-104.43 -64.911)" fill="none" stroke="#3f3d56" stroke-miterlimit="10" stroke-width="2"/>
    <path id="Path_61" data-name="Path 61" d="M688.93,472.589Z" transform="translate(-104.43 -64.911)" fill="none" stroke="#3f3d56" stroke-miterlimit="10" stroke-width="2"/>
    <circle id="Ellipse_21" data-name="Ellipse 21" cx="14.756" cy="14.756" r="14.756" transform="translate(794.786 60.774)" fill="none" stroke="#3f3d56" stroke-miterlimit="10" stroke-width="2"/>
    <path id="Path_62" data-name="Path 62" d="M256.389,493.658l-27.117,13.681,1.755,3.5,27.116-13.681Z" fill="#6c63ff"/>
    <path id="Path_78" data-name="Path 78" d="M164.876,262.939l20.71,17.055,2.437-3.655Z" opacity="0.1"/>
    <path id="Path_79" data-name="Path 79" d="M206.3,267.812l-14.618,8.527,1.218,3.655Z" opacity="0.1"/>
  </g>
</svg>
